<?xml version="1.0" standalone="no"?>
<!DOCTYPE svg PUBLIC "-//W3C//DTD SVG 20010904//EN"
 "http://www.w3.org/TR/2001/REC-SVG-20010904/DTD/svg10.dtd">
<svg version="1.0" xmlns="http://www.w3.org/2000/svg"
 width="512.000000pt" height="512.000000pt" viewBox="0 0 512.000000 512.000000"
 preserveAspectRatio="xMidYMid meet">

<g transform="translate(0.000000,512.000000) scale(0.100000,-0.100000)"
fill="#000000" stroke="none">
<path d="M905 3945 c-81 -18 -136 -41 -222 -92 -80 -49 -118 -88 -128 -133 -9
-40 9 -91 43 -122 15 -14 260 -176 545 -361 285 -185 518 -339 518 -343 1 -4
-93 -57 -208 -119 -114 -61 -269 -146 -343 -188 -74 -42 -138 -77 -142 -77 -4
0 -127 64 -275 142 -147 79 -290 150 -318 160 -142 49 -345 -15 -371 -117 -12
-48 7 -91 160 -360 l153 -270 -72 -75 c-91 -95 -109 -128 -100 -187 18 -121
187 -196 405 -179 181 13 621 107 1205 256 1179 301 2169 651 2765 978 127 69
316 201 399 279 145 134 210 259 198 378 -11 105 -69 179 -182 231 -126 57
-86 68 -541 -141 -223 -103 -408 -185 -410 -182 -2 2 -1 42 3 88 l8 83 257
116 c142 63 257 118 258 123 0 13 -311 7 -405 -7 -254 -40 -555 -126 -924
-265 -117 -45 -222 -81 -232 -81 -10 0 -409 103 -886 229 -478 126 -895 234
-927 240 -77 14 -155 13 -231 -4z"/>
<path d="M3925 2388 c-16 -6 -232 -82 -478 -168 -247 -87 -457 -166 -468 -176
-43 -39 -30 -62 163 -282 401 -455 492 -557 515 -576 47 -36 98 -32 199 17
151 74 231 176 255 325 9 59 5 112 -35 447 -44 370 -46 381 -71 403 -29 24
-36 25 -80 10z"/>
</g>
</svg>
