<?xml version="1.0" standalone="no"?>
<!DOCTYPE svg PUBLIC "-//W3C//DTD SVG 20010904//EN"
 "http://www.w3.org/TR/2001/REC-SVG-20010904/DTD/svg10.dtd">
<svg version="1.0" xmlns="http://www.w3.org/2000/svg"
 width="512.000000pt" height="512.000000pt" viewBox="0 0 512.000000 512.000000"
 preserveAspectRatio="xMidYMid meet">

<g transform="translate(0.000000,512.000000) scale(0.100000,-0.100000)"
fill="#000000" stroke="none">
<path d="M2315 5109 c-800 -83 -1501 -518 -1927 -1196 -604 -961 -490 -2237
274 -3068 425 -462 951 -737 1583 -827 119 -17 512 -16 635 1 622 86 1148 360
1572 820 349 378 572 862 650 1406 17 118 17 512 0 630 -83 583 -321 1073
-715 1474 -404 411 -899 662 -1472 747 -123 18 -478 26 -600 13z m580 -314
c456 -70 884 -279 1217 -594 308 -292 535 -680 638 -1090 51 -207 64 -315 64
-551 1 -230 -11 -335 -61 -539 -71 -295 -218 -600 -404 -840 -427 -553 -1094
-881 -1793 -881 -491 0 -993 173 -1386 479 -543 421 -870 1091 -870 1781 0
660 295 1296 800 1725 339 287 779 475 1225 524 121 13 446 5 570 -14z"/>
<path d="M2319 3945 c-57 -18 -142 -92 -171 -149 -15 -28 -23 -66 -26 -121 -4
-75 -2 -84 30 -145 37 -71 102 -129 168 -149 144 -43 296 23 362 158 34 69 32
187 -4 256 -69 131 -221 194 -359 150z"/>
<path d="M1995 3171 c-89 -40 -139 -121 -139 -221 0 -78 25 -133 81 -179 56
-47 117 -61 260 -61 l123 0 0 -535 0 -535 -129 0 c-186 0 -254 -29 -305 -132
-66 -131 -5 -285 131 -334 30 -10 148 -13 548 -13 492 -1 512 0 555 20 96 43
144 117 144 219 0 95 -43 167 -129 213 -35 19 -60 22 -187 25 l-148 4 0 679
c0 740 2 710 -57 787 -14 19 -49 45 -77 58 -50 23 -56 24 -341 24 -259 0 -294
-2 -330 -19z"/>
</g>
</svg>
